<svg width="16" height="16" viewBox="0 0 16 16" fill="none" xmlns="http://www.w3.org/2000/svg">
<path fill-rule="evenodd" clip-rule="evenodd" d="M9.41424 7.48873H11.2595C11.5392 7.48873 11.7591 7.25741 11.7591 6.97847C11.7591 6.69273 11.5392 6.46822 11.2595 6.46822H9.41424C9.13446 6.46822 8.91463 6.69273 8.91463 6.97847C8.91463 7.25741 9.13446 7.48873 9.41424 7.48873ZM13.4511 3.95164C13.8574 3.95164 14.1239 4.09451 14.3904 4.40747C14.6568 4.72043 14.7034 5.16945 14.6435 5.57697L14.0107 10.04C13.8907 10.8979 13.1713 11.5299 12.3253 11.5299H5.05763C4.17166 11.5299 3.43889 10.8367 3.36562 9.93863L2.75276 2.52225L1.74688 2.34536C1.48042 2.29774 1.2939 2.0324 1.34053 1.76027C1.38716 1.48201 1.64696 1.29764 1.92008 1.33914L3.50884 1.58338C3.73533 1.62488 3.90187 1.8147 3.92185 2.04601L4.04842 3.56997C4.0684 3.78836 4.2416 3.95164 4.45477 3.95164H13.4511ZM4.95092 12.6052C4.39135 12.6052 3.93837 13.0678 3.93837 13.6393C3.93837 14.204 4.39135 14.6666 4.95092 14.6666C5.50382 14.6666 5.9568 14.204 5.9568 13.6393C5.9568 13.0678 5.50382 12.6052 4.95092 12.6052ZM12.4451 12.6052C11.8855 12.6052 11.4325 13.0678 11.4325 13.6393C11.4325 14.204 11.8855 14.6666 12.4451 14.6666C12.998 14.6666 13.451 14.204 13.451 13.6393C13.451 13.0678 12.998 12.6052 12.4451 12.6052Z" fill="white"/>
</svg>
