<svg width="16" height="16" viewBox="0 0 16 16" fill="none" xmlns="http://www.w3.org/2000/svg">
<path d="M7.4869 4.8597V2.18702C7.4869 1.90284 7.71356 1.66602 8.00023 1.66602C8.2569 1.66602 8.47435 1.86501 8.50881 2.11707L8.51356 2.18702V4.8597L11.7002 4.8599C13.2868 4.8599 14.5904 6.1592 14.6636 7.77962L14.6668 7.92341V11.2829C14.6668 12.9147 13.4086 14.2541 11.8455 14.3294L11.7068 14.3327H4.2935C2.70683 14.3327 1.40956 13.0399 1.33672 11.4135L1.3335 11.2692L1.3335 7.91652C1.3335 6.28475 2.58544 4.93882 4.14816 4.86325L4.28683 4.8599H7.48683V9.12816L6.42016 8.02667C6.22016 7.82014 5.8935 7.82014 5.6935 8.02667C5.5935 8.12994 5.54683 8.26762 5.54683 8.40531C5.54683 8.50995 5.5767 8.619 5.63984 8.7113L5.6935 8.77706L7.6335 10.7873C7.72683 10.8905 7.86016 10.9456 8.00016 10.9456C8.11127 10.9456 8.22238 10.9074 8.31035 10.8349L8.36016 10.7873L10.3002 8.77706C10.5002 8.57053 10.5002 8.2332 10.3002 8.02667C10.1183 7.83892 9.83184 7.82185 9.63099 7.97547L9.57349 8.02667L8.5135 9.12816V4.8599L7.4869 4.8597Z" fill="white"/>
</svg>
