<svg width="24" height="19" viewBox="0 0 24 19" fill="none" xmlns="http://www.w3.org/2000/svg">
<path fill-rule="evenodd" clip-rule="evenodd" d="M0.000396159 3.52486C0 3.67624 0 3.83448 0 4V14.6667C0 16.5523 0 17.4951 0.585786 18.0809C1.17157 18.6667 2.11438 18.6667 4 18.6667H20C21.8856 18.6667 22.8284 18.6667 23.4142 18.0809C24 17.4951 24 16.5523 24 14.6667V4C24 3.83449 24 3.67624 23.9996 3.52486L12.3642 9.98895C12.1377 10.1148 11.8623 10.1148 11.6358 9.98895L0.000396159 3.52486ZM0.0592792 1.91883C0.163228 1.92701 0.267129 1.9571 0.364232 2.01105L12 8.47536L23.6358 2.01105C23.7329 1.9571 23.8368 1.92701 23.9407 1.91883C23.8728 1.31321 23.727 0.898596 23.4142 0.585786C22.8284 0 21.8856 0 20 0H4C2.11438 0 1.17157 0 0.585786 0.585786C0.272978 0.898595 0.127208 1.31321 0.0592792 1.91883Z" fill="#F03790"/>
</svg>
