<svg width="21" height="20" viewBox="0 0 21 20" fill="none" xmlns="http://www.w3.org/2000/svg">
<path d="M5.167 20H0.916988V6.625H5.167V20ZM3.04199 4.75C1.66699 4.75 0.666992 3.75 0.666992 2.375C0.666992 1 1.79199 0 3.04199 0C4.41699 0 5.417 1 5.417 2.375C5.417 3.75 4.41699 4.75 3.04199 4.75ZM20.667 20H16.417V12.75C16.417 10.625 15.542 10 14.292 10C13.042 10 11.792 11 11.792 12.875V20H7.54199V6.625H11.542V8.5C11.917 7.625 13.417 6.25 15.542 6.25C17.917 6.25 20.417 7.625 20.417 11.75V20H20.667Z" fill="#2867B2"/>
</svg>
