<svg width="17" height="16" viewBox="0 0 17 16" fill="none" xmlns="http://www.w3.org/2000/svg">
<path d="M8.49935 5.33341C9.23268 5.33341 9.83268 4.73341 9.83268 4.00008C9.83268 3.26675 9.23268 2.66675 8.49935 2.66675C7.76602 2.66675 7.16602 3.26675 7.16602 4.00008C7.16602 4.73341 7.76602 5.33341 8.49935 5.33341ZM8.49935 6.66675C7.76602 6.66675 7.16602 7.26675 7.16602 8.00008C7.16602 8.73341 7.76602 9.33341 8.49935 9.33341C9.23268 9.33341 9.83268 8.73341 9.83268 8.00008C9.83268 7.26675 9.23268 6.66675 8.49935 6.66675ZM8.49935 10.6667C7.76602 10.6667 7.16602 11.2667 7.16602 12.0001C7.16602 12.7334 7.76602 13.3334 8.49935 13.3334C9.23268 13.3334 9.83268 12.7334 9.83268 12.0001C9.83268 11.2667 9.23268 10.6667 8.49935 10.6667Z" fill="#A4B4CB"/>
</svg>
