<svg width="16" height="16" viewBox="0 0 16 16" fill="none" xmlns="http://www.w3.org/2000/svg">
<path fill-rule="evenodd" clip-rule="evenodd" d="M4.88683 1.33337H11.1068C13.3735 1.33337 14.6668 2.61337 14.6668 4.88671V11.1134C14.6668 13.3734 13.3802 14.6667 11.1135 14.6667H4.88683C2.6135 14.6667 1.3335 13.3734 1.3335 11.1134V4.88671C1.3335 2.61337 2.6135 1.33337 4.88683 1.33337ZM8.54683 8.55337H10.4402C10.7468 8.54671 10.9935 8.30004 10.9935 7.99337C10.9935 7.68671 10.7468 7.44004 10.4402 7.44004H8.54683V5.56004C8.54683 5.25337 8.30016 5.00671 7.9935 5.00671C7.68683 5.00671 7.44016 5.25337 7.44016 5.56004V7.44004H5.5535C5.40683 7.44004 5.26683 7.50004 5.16016 7.60004C5.06016 7.70671 5.00016 7.84604 5.00016 7.99337C5.00016 8.30004 5.24683 8.54671 5.5535 8.55337H7.44016V10.44C7.44016 10.7467 7.68683 10.9934 7.9935 10.9934C8.30016 10.9934 8.54683 10.7467 8.54683 10.44V8.55337Z" fill="white"/>
</svg>
