<svg width="22" height="22" viewBox="0 0 22 22" fill="none" xmlns="http://www.w3.org/2000/svg">
<g id="Iconly/Curved/Profile">
<g id="Profile">
<path id="Stroke 1" fill-rule="evenodd" clip-rule="evenodd" d="M10.8577 19.8567C7.4735 19.8567 4.5835 19.3301 4.5835 17.221C4.5835 15.112 7.45516 13.165 10.8577 13.165C14.2418 13.165 17.1318 15.0931 17.1318 17.2022C17.1318 19.3104 14.2602 19.8567 10.8577 19.8567Z" stroke="#A4B4CB" stroke-width="1.5" stroke-linecap="round" stroke-linejoin="round"/>
<path id="Stroke 3" fill-rule="evenodd" clip-rule="evenodd" d="M10.8508 10.2425C13.0716 10.2425 14.8716 8.44245 14.8716 6.22162C14.8716 4.00078 13.0716 2.19995 10.8508 2.19995C8.62996 2.19995 6.82913 4.00078 6.82913 6.22162C6.82163 8.43495 8.60913 10.235 10.8225 10.2425C10.8325 10.2425 10.8416 10.2425 10.8508 10.2425Z" stroke="#A4B4CB" stroke-width="1.5" stroke-linecap="round" stroke-linejoin="round"/>
</g>
</g>
</svg>
