<svg width="25" height="20" viewBox="0 0 25 20" fill="none" xmlns="http://www.w3.org/2000/svg">
<path d="M24.3335 2.25C23.4335 2.7 22.5335 2.85 21.4835 3C22.5335 2.4 23.2835 1.5 23.5835 0.3C22.6835 0.9 21.6335 1.2 20.4335 1.5C19.5335 0.6 18.1835 0 16.8335 0C13.6835 0 11.2835 3 12.0335 6C7.9835 5.85 4.3835 3.9 1.8335 0.900001C0.483496 3.15 1.2335 6 3.3335 7.5C2.5835 7.5 1.8335 7.2 1.0835 6.9C1.0835 9.15 2.7335 11.25 4.9835 11.85C4.2335 12 3.4835 12.15 2.7335 12C3.3335 13.95 5.1335 15.45 7.3835 15.45C5.5835 16.8 2.8835 17.55 0.333496 17.25C2.5835 18.6 5.1335 19.5 7.8335 19.5C16.9835 19.5 22.0835 11.85 21.7835 4.8C22.8335 4.2 23.7335 3.3 24.3335 2.25Z" fill="#1DA1F2"/>
</svg>
